# xmcd
#
# Track frame offsets:
#	150
#	13089
#	34029
#	53892
#	70702
#	90347
#	110157
#	130678
#	149132
#	166375
#
# Disc length: 2449 seconds
#
# Revision: 0
# Processed by: cddbd v1.5.2PL0 Copyright (c) Steve Scherf et al.
# Submitted via: EasyCDDAExtractor 10.0.5.1
#
DISCID=88098f0a
DTITLE=John Mayall - Notice To Appear
DYEAR=1993
DGENRE=Blues
TTITLE0=Lil' Boogie in the Afternoon
TTITLE1=Mess of Love
TTITLE2=That Love
TTITLE3=The Boy Most Likely to Succeed
TTITLE4=Who's Next, Who's Now
TTITLE5=Hale to the Man Who Lives Alon
TTITLE6=There Will Be a Way
TTITLE7=Just Knowing You Is a Pleasure
TTITLE8=A Hard Day's Night
TTITLE9=Old Time Blues
EXTD=
EXTT0=
EXTT1=
EXTT2=
EXTT3=
EXTT4=
EXTT5=
EXTT6=
EXTT7=
EXTT8=
EXTT9=
PLAYORDER=
